<mxfile host="65bd71144e">
    <diagram id="3CGOplF_25yKbEWaD3JT" name="Use Case">
        <mxGraphModel dx="1723" dy="1588" grid="0" gridSize="10" guides="1" tooltips="1" connect="1" arrows="1" fold="1" page="1" pageScale="1" pageWidth="850" pageHeight="1100" math="0" shadow="0">
            <root>
                <mxCell id="0"/>
                <mxCell id="1" parent="0"/>
                <mxCell id="218" value="Biểu đồ ca" style="shape=umlFrame;whiteSpace=wrap;html=1;width=75;height=22;boundedLbl=1;verticalAlign=middle;align=left;spacingLeft=5;" parent="1" vertex="1">
                    <mxGeometry x="-142" y="-114" width="1164" height="762" as="geometry"/>
                </mxCell>
                <mxCell id="263" value="" style="rounded=0;whiteSpace=wrap;html=1;" parent="1" vertex="1">
                    <mxGeometry x="27" y="-70" width="823" height="676" as="geometry"/>
                </mxCell>
                <mxCell id="90" value="Quản trị viên" style="shape=umlActor;verticalLabelPosition=bottom;verticalAlign=top;html=1;" parent="1" vertex="1">
                    <mxGeometry x="-65" y="3" width="30" height="60" as="geometry"/>
                </mxCell>
                <mxCell id="270" value="&lt;font style=&quot;font-size: 24px&quot;&gt;Medicine16&lt;/font&gt;" style="text;html=1;strokeColor=none;fillColor=none;align=center;verticalAlign=middle;whiteSpace=wrap;rounded=0;" parent="1" vertex="1">
                    <mxGeometry x="395" y="-58" width="40" height="20" as="geometry"/>
                </mxCell>
                <mxCell id="e231MXxMTPdDSmjY2rK_-270" value="Quản lý bệnh nhân" style="ellipse;whiteSpace=wrap;html=1;" parent="1" vertex="1">
                    <mxGeometry x="82" y="240" width="140" height="70" as="geometry"/>
                </mxCell>
                <mxCell id="e231MXxMTPdDSmjY2rK_-271" value="" style="endArrow=none;startArrow=none;endFill=0;startFill=0;endSize=8;html=1;verticalAlign=bottom;labelBackgroundColor=none;strokeWidth=3;entryX=0;entryY=0.5;entryDx=0;entryDy=0;exitX=1;exitY=0.3333333333333333;exitDx=0;exitDy=0;exitPerimeter=0;" parent="1" source="90" target="e231MXxMTPdDSmjY2rK_-270" edge="1">
                    <mxGeometry width="160" relative="1" as="geometry">
                        <mxPoint x="-85" y="169" as="sourcePoint"/>
                        <mxPoint x="73" y="179" as="targetPoint"/>
                    </mxGeometry>
                </mxCell>
                <mxCell id="e231MXxMTPdDSmjY2rK_-272" value="Quản lý nhân viên" style="ellipse;whiteSpace=wrap;html=1;" parent="1" vertex="1">
                    <mxGeometry x="82" y="-13" width="140" height="70" as="geometry"/>
                </mxCell>
                <mxCell id="e231MXxMTPdDSmjY2rK_-301" value="Bác sĩ" style="shape=umlActor;verticalLabelPosition=bottom;verticalAlign=top;html=1;" parent="1" vertex="1">
                    <mxGeometry x="919" y="-3" width="30" height="60" as="geometry"/>
                </mxCell>
                <mxCell id="e231MXxMTPdDSmjY2rK_-307" value="" style="endArrow=none;startArrow=none;endFill=0;startFill=0;endSize=8;html=1;verticalAlign=bottom;labelBackgroundColor=none;strokeWidth=3;exitX=0;exitY=0.333;exitDx=0;exitDy=0;exitPerimeter=0;entryX=1;entryY=0.5;entryDx=0;entryDy=0;" parent="1" source="e231MXxMTPdDSmjY2rK_-301" target="295" edge="1">
                    <mxGeometry width="160" relative="1" as="geometry">
                        <mxPoint x="-78" y="199" as="sourcePoint"/>
                        <mxPoint x="776.99999999999" y="365" as="targetPoint"/>
                    </mxGeometry>
                </mxCell>
                <mxCell id="e231MXxMTPdDSmjY2rK_-312" value="" style="endArrow=none;startArrow=none;endFill=0;startFill=0;endSize=8;html=1;verticalAlign=bottom;labelBackgroundColor=none;strokeWidth=3;entryX=0;entryY=0.5;entryDx=0;entryDy=0;exitX=1;exitY=0.3333333333333333;exitDx=0;exitDy=0;exitPerimeter=0;" parent="1" source="90" target="e231MXxMTPdDSmjY2rK_-272" edge="1">
                    <mxGeometry width="160" relative="1" as="geometry">
                        <mxPoint x="-78" y="520.0000000000002" as="sourcePoint"/>
                        <mxPoint x="76" y="631" as="targetPoint"/>
                    </mxGeometry>
                </mxCell>
                <mxCell id="e231MXxMTPdDSmjY2rK_-318" value="Thủ kho" style="shape=umlActor;verticalLabelPosition=bottom;verticalAlign=top;html=1;" parent="1" vertex="1">
                    <mxGeometry x="919" y="253" width="30" height="60" as="geometry"/>
                </mxCell>
                <mxCell id="e231MXxMTPdDSmjY2rK_-326" value="" style="endArrow=none;startArrow=none;endFill=0;startFill=0;endSize=8;html=1;verticalAlign=bottom;labelBackgroundColor=none;strokeWidth=3;entryX=1;entryY=0.5;entryDx=0;entryDy=0;exitX=0;exitY=0.3333333333333333;exitDx=0;exitDy=0;exitPerimeter=0;" parent="1" source="e231MXxMTPdDSmjY2rK_-318" target="e231MXxMTPdDSmjY2rK_-327" edge="1">
                    <mxGeometry width="160" relative="1" as="geometry">
                        <mxPoint x="749" y="731" as="sourcePoint"/>
                        <mxPoint x="567" y="628" as="targetPoint"/>
                    </mxGeometry>
                </mxCell>
                <mxCell id="e231MXxMTPdDSmjY2rK_-327" value="Quản lý kho" style="ellipse;whiteSpace=wrap;html=1;" parent="1" vertex="1">
                    <mxGeometry x="644" y="240" width="140" height="70" as="geometry"/>
                </mxCell>
                <mxCell id="282" value="Mã BN" style="ellipse;whiteSpace=wrap;html=1;" parent="1" vertex="1">
                    <mxGeometry x="272" y="240" width="140" height="70" as="geometry"/>
                </mxCell>
                <mxCell id="283" value="Mã TK" style="ellipse;whiteSpace=wrap;html=1;" parent="1" vertex="1">
                    <mxGeometry x="272" y="330" width="140" height="70" as="geometry"/>
                </mxCell>
                <mxCell id="284" value="Mã NV" style="ellipse;whiteSpace=wrap;html=1;" parent="1" vertex="1">
                    <mxGeometry x="272" y="72" width="140" height="70" as="geometry"/>
                </mxCell>
                <mxCell id="285" value="Mã TK" style="ellipse;whiteSpace=wrap;html=1;" parent="1" vertex="1">
                    <mxGeometry x="272" y="-17" width="140" height="70" as="geometry"/>
                </mxCell>
                <mxCell id="286" value="Vị trí" style="ellipse;whiteSpace=wrap;html=1;" parent="1" vertex="1">
                    <mxGeometry x="272" y="155" width="140" height="70" as="geometry"/>
                </mxCell>
                <mxCell id="287" value="&amp;lt;&amp;lt;include&amp;gt;&amp;gt;" style="html=1;verticalAlign=bottom;labelBackgroundColor=none;endArrow=open;endFill=0;dashed=1;entryX=0;entryY=0.5;entryDx=0;entryDy=0;exitX=1;exitY=1;exitDx=0;exitDy=0;" parent="1" source="e231MXxMTPdDSmjY2rK_-272" target="284" edge="1">
                    <mxGeometry width="160" relative="1" as="geometry">
                        <mxPoint x="207" y="535" as="sourcePoint"/>
                        <mxPoint x="367" y="535" as="targetPoint"/>
                    </mxGeometry>
                </mxCell>
                <mxCell id="288" value="&amp;lt;&amp;lt;include&amp;gt;&amp;gt;" style="html=1;verticalAlign=bottom;labelBackgroundColor=none;endArrow=open;endFill=0;dashed=1;entryX=0;entryY=0.5;entryDx=0;entryDy=0;" parent="1" source="e231MXxMTPdDSmjY2rK_-272" target="285" edge="1">
                    <mxGeometry width="160" relative="1" as="geometry">
                        <mxPoint x="157" y="601" as="sourcePoint"/>
                        <mxPoint x="317" y="601" as="targetPoint"/>
                    </mxGeometry>
                </mxCell>
                <mxCell id="289" value="&amp;lt;&amp;lt;include&amp;gt;&amp;gt;" style="html=1;verticalAlign=bottom;labelBackgroundColor=none;endArrow=open;endFill=0;dashed=1;exitX=0.5;exitY=1;exitDx=0;exitDy=0;entryX=-0.007;entryY=0.4;entryDx=0;entryDy=0;entryPerimeter=0;" parent="1" source="e231MXxMTPdDSmjY2rK_-272" target="286" edge="1">
                    <mxGeometry width="160" relative="1" as="geometry">
                        <mxPoint x="176" y="664" as="sourcePoint"/>
                        <mxPoint x="336" y="664" as="targetPoint"/>
                    </mxGeometry>
                </mxCell>
                <mxCell id="290" value="&amp;lt;&amp;lt;include&amp;gt;&amp;gt;" style="html=1;verticalAlign=bottom;labelBackgroundColor=none;endArrow=open;endFill=0;dashed=1;exitX=1;exitY=0.5;exitDx=0;exitDy=0;entryX=0;entryY=0.5;entryDx=0;entryDy=0;" parent="1" source="e231MXxMTPdDSmjY2rK_-270" target="282" edge="1">
                    <mxGeometry width="160" relative="1" as="geometry">
                        <mxPoint x="111" y="883" as="sourcePoint"/>
                        <mxPoint x="271" y="883" as="targetPoint"/>
                    </mxGeometry>
                </mxCell>
                <mxCell id="291" value="&amp;lt;&amp;lt;include&amp;gt;&amp;gt;" style="html=1;verticalAlign=bottom;labelBackgroundColor=none;endArrow=open;endFill=0;dashed=1;exitX=1;exitY=1;exitDx=0;exitDy=0;entryX=0;entryY=0.5;entryDx=0;entryDy=0;" parent="1" source="e231MXxMTPdDSmjY2rK_-270" target="283" edge="1">
                    <mxGeometry width="160" relative="1" as="geometry">
                        <mxPoint x="208" y="867" as="sourcePoint"/>
                        <mxPoint x="368" y="867" as="targetPoint"/>
                    </mxGeometry>
                </mxCell>
                <mxCell id="295" value="Quản lý lịch khám" style="ellipse;whiteSpace=wrap;html=1;" parent="1" vertex="1">
                    <mxGeometry x="644" y="-17" width="140" height="70" as="geometry"/>
                </mxCell>
                <mxCell id="296" value="Mã K" style="ellipse;whiteSpace=wrap;html=1;" parent="1" vertex="1">
                    <mxGeometry x="435" y="-17" width="140" height="70" as="geometry"/>
                </mxCell>
                <mxCell id="297" value="Mã BN" style="ellipse;whiteSpace=wrap;html=1;" parent="1" vertex="1">
                    <mxGeometry x="435" y="72" width="140" height="70" as="geometry"/>
                </mxCell>
                <mxCell id="298" value="Ngày khám" style="ellipse;whiteSpace=wrap;html=1;" parent="1" vertex="1">
                    <mxGeometry x="435" y="155" width="140" height="70" as="geometry"/>
                </mxCell>
                <mxCell id="301" value="&amp;lt;&amp;lt;include&amp;gt;&amp;gt;" style="html=1;verticalAlign=bottom;labelBackgroundColor=none;endArrow=open;endFill=0;dashed=1;exitX=0;exitY=0.5;exitDx=0;exitDy=0;entryX=1;entryY=0.5;entryDx=0;entryDy=0;" parent="1" source="295" target="296" edge="1">
                    <mxGeometry width="160" relative="1" as="geometry">
                        <mxPoint x="685" y="507" as="sourcePoint"/>
                        <mxPoint x="616" y="426" as="targetPoint"/>
                    </mxGeometry>
                </mxCell>
                <mxCell id="302" value="&amp;lt;&amp;lt;include&amp;gt;&amp;gt;" style="html=1;verticalAlign=bottom;labelBackgroundColor=none;endArrow=open;endFill=0;dashed=1;exitX=0;exitY=1;exitDx=0;exitDy=0;entryX=1;entryY=0.5;entryDx=0;entryDy=0;" parent="1" source="295" target="297" edge="1">
                    <mxGeometry width="160" relative="1" as="geometry">
                        <mxPoint x="656" y="498" as="sourcePoint"/>
                        <mxPoint x="816" y="498" as="targetPoint"/>
                    </mxGeometry>
                </mxCell>
                <mxCell id="303" value="&amp;lt;&amp;lt;include&amp;gt;&amp;gt;" style="html=1;verticalAlign=bottom;labelBackgroundColor=none;endArrow=open;endFill=0;dashed=1;exitX=0.5;exitY=1;exitDx=0;exitDy=0;entryX=1;entryY=0.5;entryDx=0;entryDy=0;" parent="1" source="295" target="298" edge="1">
                    <mxGeometry width="160" relative="1" as="geometry">
                        <mxPoint x="575" y="289" as="sourcePoint"/>
                        <mxPoint x="735" y="289" as="targetPoint"/>
                    </mxGeometry>
                </mxCell>
                <mxCell id="304" value="Mã T" style="ellipse;whiteSpace=wrap;html=1;" parent="1" vertex="1">
                    <mxGeometry x="435" y="243" width="140" height="70" as="geometry"/>
                </mxCell>
                <mxCell id="305" value="Số lượng nhập" style="ellipse;whiteSpace=wrap;html=1;" parent="1" vertex="1">
                    <mxGeometry x="435" y="330" width="140" height="70" as="geometry"/>
                </mxCell>
                <mxCell id="306" value="Số lượng xuất" style="ellipse;whiteSpace=wrap;html=1;" parent="1" vertex="1">
                    <mxGeometry x="435" y="417" width="140" height="70" as="geometry"/>
                </mxCell>
                <mxCell id="307" value="Số lượng tồn" style="ellipse;whiteSpace=wrap;html=1;" parent="1" vertex="1">
                    <mxGeometry x="435" y="500" width="140" height="70" as="geometry"/>
                </mxCell>
                <mxCell id="308" value="&amp;lt;&amp;lt;extend&amp;gt;&amp;gt;" style="html=1;verticalAlign=bottom;labelBackgroundColor=none;endArrow=open;endFill=0;dashed=1;exitX=1;exitY=0.5;exitDx=0;exitDy=0;entryX=0.333;entryY=0.999;entryDx=0;entryDy=0;entryPerimeter=0;" parent="1" source="307" target="e231MXxMTPdDSmjY2rK_-327" edge="1">
                    <mxGeometry width="160" relative="1" as="geometry">
                        <mxPoint x="630" y="346" as="sourcePoint"/>
                        <mxPoint x="790" y="346" as="targetPoint"/>
                    </mxGeometry>
                </mxCell>
                <mxCell id="309" value="&amp;lt;&amp;lt;extend&amp;gt;&amp;gt;" style="html=1;verticalAlign=bottom;labelBackgroundColor=none;endArrow=open;endFill=0;dashed=1;exitX=1;exitY=0.5;exitDx=0;exitDy=0;entryX=0;entryY=1;entryDx=0;entryDy=0;" parent="1" source="306" target="e231MXxMTPdDSmjY2rK_-327" edge="1">
                    <mxGeometry width="160" relative="1" as="geometry">
                        <mxPoint x="739" y="416" as="sourcePoint"/>
                        <mxPoint x="899" y="416" as="targetPoint"/>
                    </mxGeometry>
                </mxCell>
                <mxCell id="310" value="&amp;lt;&amp;lt;extend&amp;gt;&amp;gt;" style="html=1;verticalAlign=bottom;labelBackgroundColor=none;endArrow=open;endFill=0;dashed=1;exitX=1;exitY=0.5;exitDx=0;exitDy=0;entryX=0;entryY=0.5;entryDx=0;entryDy=0;" parent="1" source="305" target="e231MXxMTPdDSmjY2rK_-327" edge="1">
                    <mxGeometry width="160" relative="1" as="geometry">
                        <mxPoint x="723" y="446" as="sourcePoint"/>
                        <mxPoint x="649" y="288" as="targetPoint"/>
                    </mxGeometry>
                </mxCell>
                <mxCell id="311" value="&amp;lt;&amp;lt;extend&amp;gt;&amp;gt;" style="html=1;verticalAlign=bottom;labelBackgroundColor=none;endArrow=open;endFill=0;dashed=1;exitX=1;exitY=0.5;exitDx=0;exitDy=0;entryX=0;entryY=0;entryDx=0;entryDy=0;" parent="1" source="304" target="e231MXxMTPdDSmjY2rK_-327" edge="1">
                    <mxGeometry width="160" relative="1" as="geometry">
                        <mxPoint x="753" y="444" as="sourcePoint"/>
                        <mxPoint x="913" y="444" as="targetPoint"/>
                    </mxGeometry>
                </mxCell>
            </root>
        </mxGraphModel>
    </diagram>
    <diagram id="XH2-KGHgXs1VckAgN7d-" name="Class">
        <mxGraphModel dx="887" dy="488" grid="0" gridSize="10" guides="1" tooltips="1" connect="1" arrows="1" fold="1" page="1" pageScale="1" pageWidth="850" pageHeight="1100" math="0" shadow="0">
            <root>
                <mxCell id="rqCDqb16ot3SvTPK8jaa-0"/>
                <mxCell id="rqCDqb16ot3SvTPK8jaa-1" parent="rqCDqb16ot3SvTPK8jaa-0"/>
                <mxCell id="rqCDqb16ot3SvTPK8jaa-2" value="«interface»&#10;QuanTriVien" style="swimlane;fontStyle=1;align=center;verticalAlign=top;childLayout=stackLayout;horizontal=1;startSize=38;horizontalStack=0;resizeParent=1;resizeParentMax=0;resizeLast=0;collapsible=1;marginBottom=0;" parent="rqCDqb16ot3SvTPK8jaa-1" vertex="1">
                    <mxGeometry x="219" y="207" width="382" height="213" as="geometry"/>
                </mxCell>
                <mxCell id="rqCDqb16ot3SvTPK8jaa-3" value="- maQT: String&#10;- ten: String&#10;- ho: String&#10;- diaChi: String&#10;- soDienThoai: Int" style="text;strokeColor=none;fillColor=none;align=left;verticalAlign=top;spacingLeft=4;spacingRight=4;overflow=hidden;rotatable=0;points=[[0,0.5],[1,0.5]];portConstraint=eastwest;" parent="rqCDqb16ot3SvTPK8jaa-2" vertex="1">
                    <mxGeometry y="38" width="382" height="78" as="geometry"/>
                </mxCell>
                <mxCell id="rqCDqb16ot3SvTPK8jaa-4" value="" style="line;strokeWidth=1;fillColor=none;align=left;verticalAlign=middle;spacingTop=-1;spacingLeft=3;spacingRight=3;rotatable=0;labelPosition=right;points=[];portConstraint=eastwest;" parent="rqCDqb16ot3SvTPK8jaa-2" vertex="1">
                    <mxGeometry y="116" width="382" height="8" as="geometry"/>
                </mxCell>
                <mxCell id="rqCDqb16ot3SvTPK8jaa-5" value="+ xemHoSo(): void&#10;+ quanLyTaiKhoan(String matKhau, String soDienThoai): NguoiDung&#10;+ khoaTaiKhoan(String matKhau, String soDienThoai): void&#10;+ doiMatKhau(String matKhau, String soDienThoai): void&#10;+ thongKe(): string" style="text;strokeColor=none;fillColor=none;align=left;verticalAlign=top;spacingLeft=4;spacingRight=4;overflow=hidden;rotatable=0;points=[[0,0.5],[1,0.5]];portConstraint=eastwest;" parent="rqCDqb16ot3SvTPK8jaa-2" vertex="1">
                    <mxGeometry y="124" width="382" height="89" as="geometry"/>
                </mxCell>
                <mxCell id="rqCDqb16ot3SvTPK8jaa-6" value="«interface»&#10;ThuKho" style="swimlane;fontStyle=1;align=center;verticalAlign=top;childLayout=stackLayout;horizontal=1;startSize=38;horizontalStack=0;resizeParent=1;resizeParentMax=0;resizeLast=0;collapsible=1;marginBottom=0;" parent="rqCDqb16ot3SvTPK8jaa-1" vertex="1">
                    <mxGeometry x="219" y="434" width="285" height="185" as="geometry"/>
                </mxCell>
                <mxCell id="rqCDqb16ot3SvTPK8jaa-7" value="- maTK: String&#10;- ten: String&#10;- ho: String&#10;- diaChi: String&#10;- soDienThoai: Int" style="text;strokeColor=none;fillColor=none;align=left;verticalAlign=top;spacingLeft=4;spacingRight=4;overflow=hidden;rotatable=0;points=[[0,0.5],[1,0.5]];portConstraint=eastwest;" parent="rqCDqb16ot3SvTPK8jaa-6" vertex="1">
                    <mxGeometry y="38" width="285" height="80" as="geometry"/>
                </mxCell>
                <mxCell id="rqCDqb16ot3SvTPK8jaa-8" value="" style="line;strokeWidth=1;fillColor=none;align=left;verticalAlign=middle;spacingTop=-1;spacingLeft=3;spacingRight=3;rotatable=0;labelPosition=right;points=[];portConstraint=eastwest;" parent="rqCDqb16ot3SvTPK8jaa-6" vertex="1">
                    <mxGeometry y="118" width="285" height="8" as="geometry"/>
                </mxCell>
                <mxCell id="rqCDqb16ot3SvTPK8jaa-9" value="+ quanLyKho(String matKhau): void&#10;+ quanLyThuoc(): void&#10;+ quanLyTrangThietBi(): void" style="text;strokeColor=none;fillColor=none;align=left;verticalAlign=top;spacingLeft=4;spacingRight=4;overflow=hidden;rotatable=0;points=[[0,0.5],[1,0.5]];portConstraint=eastwest;" parent="rqCDqb16ot3SvTPK8jaa-6" vertex="1">
                    <mxGeometry y="126" width="285" height="59" as="geometry"/>
                </mxCell>
                <mxCell id="rqCDqb16ot3SvTPK8jaa-11" value="«interface»&#10;DuocSi" style="swimlane;fontStyle=1;align=center;verticalAlign=top;childLayout=stackLayout;horizontal=1;startSize=38;horizontalStack=0;resizeParent=1;resizeParentMax=0;resizeLast=0;collapsible=1;marginBottom=0;" parent="rqCDqb16ot3SvTPK8jaa-1" vertex="1">
                    <mxGeometry x="219" y="639" width="286" height="202" as="geometry"/>
                </mxCell>
                <mxCell id="rqCDqb16ot3SvTPK8jaa-12" value="- maDS: String&#10;- ten: String&#10;- ho: String&#10;- diaChi: String&#10;- soDienThoai: Int" style="text;strokeColor=none;fillColor=none;align=left;verticalAlign=top;spacingLeft=4;spacingRight=4;overflow=hidden;rotatable=0;points=[[0,0.5],[1,0.5]];portConstraint=eastwest;" parent="rqCDqb16ot3SvTPK8jaa-11" vertex="1">
                    <mxGeometry y="38" width="286" height="72" as="geometry"/>
                </mxCell>
                <mxCell id="rqCDqb16ot3SvTPK8jaa-13" value="" style="line;strokeWidth=1;fillColor=none;align=left;verticalAlign=middle;spacingTop=-1;spacingLeft=3;spacingRight=3;rotatable=0;labelPosition=right;points=[];portConstraint=eastwest;" parent="rqCDqb16ot3SvTPK8jaa-11" vertex="1">
                    <mxGeometry y="110" width="286" height="16" as="geometry"/>
                </mxCell>
                <mxCell id="rqCDqb16ot3SvTPK8jaa-14" value="+ xemDonThuoc(String matKhau): void&#10;+ in(): void&#10;+ dieuChinhSoLuongThuoc/vatDungDaBan(): void&#10;+ quanLyQuayThuoc(String matKhau): void" style="text;strokeColor=none;fillColor=none;align=left;verticalAlign=top;spacingLeft=4;spacingRight=4;overflow=hidden;rotatable=0;points=[[0,0.5],[1,0.5]];portConstraint=eastwest;" parent="rqCDqb16ot3SvTPK8jaa-11" vertex="1">
                    <mxGeometry y="126" width="286" height="76" as="geometry"/>
                </mxCell>
            </root>
        </mxGraphModel>
    </diagram>
    <diagram id="m_bA3fSsG68a9Jzg--aS" name="Activity">
        <mxGraphModel dx="887" dy="488" grid="0" gridSize="10" guides="1" tooltips="1" connect="1" arrows="1" fold="1" page="1" pageScale="1" pageWidth="850" pageHeight="1100" math="0" shadow="0">
            <root>
                <mxCell id="egOsNYIqWtgnQG-z7xXL-0"/>
                <mxCell id="egOsNYIqWtgnQG-z7xXL-1" parent="egOsNYIqWtgnQG-z7xXL-0"/>
            </root>
        </mxGraphModel>
    </diagram>
    <diagram id="dJ8TIa0oOEzLZdp0TVPH" name="Sequence">
        <mxGraphModel dx="873" dy="488" grid="1" gridSize="10" guides="1" tooltips="1" connect="1" arrows="1" fold="1" page="1" pageScale="1" pageWidth="850" pageHeight="1100" math="0" shadow="0">
            <root>
                <mxCell id="ban3GIgoiY41HupAhzNf-0"/>
                <mxCell id="ban3GIgoiY41HupAhzNf-1" parent="ban3GIgoiY41HupAhzNf-0"/>
            </root>
        </mxGraphModel>
    </diagram>
</mxfile>